<svg
  xmlns="http://www.w3.org/2000/svg"
  viewBox="0 0 48 48"
  width="2.2rem" 
  height="2rem" 
  fill="#FFFFFF" 
  stroke="#000"
  stroke-linecap="round"
  stroke-linejoin="round"
  stroke-width="2px"
>
  <title>leaf</title>
  <path d="M20,34c1,3.47,2.25,8.5,4,10" />
  <path d="M17,8s0,15.75,3,26.16" />
  <line x1="18" y1="15" x2="21" y2="13" />
  <line x1="19" y1="28" x2="25" y2="24" />
  <line x1="12" y1="20" x2="17" y2="21" />
  <path d="M8.86,26.09c-2.29-.5-4.54.06-4.83,2.44a4.12,4.12,0,0,0,3.29,4.41l6.23,1.36a9.92,9.92,0,0,1,4,2A7.54,7.54,0,0,0,21,37" />
  <path d="M21,35l6.14-6.1a17.64,17.64,0,0,1,3-2.51,4,4,0,0,0,1.59-4.86,4.15,4.15,0,0,0-5.2-2.26l-1.1,0a1.44,1.44,0,0,1-1.89-1.25l0-.33a1.44,1.44,0,0,1,.79-1.4l1.34-.67a4.12,4.12,0,0,0,2.1-5.08,4,4,0,0,0-5.53-2.15L21,9c0-.63,0-1,0-1a4,4,0,0,0-4-4h0a4,4,0,0,0-4,4c0,.29,0,3.43,.27,7.77l-2-.56a4.15,4.15,0,0,0-5.1,2.48A4,4,0,0,0,8.9,22.85l1.22.21a1.44,1.44,0,0,1,1,1.2v0C11.28,25.27,10,26.21,9,26" />
  <line x1="12" y1="30" x2="19" y2="32" />
  <rect x="-151" y="-219" width="1rem" height="1rem" />
</svg>